<?xml version="1.0" encoding="UTF-8" standalone="no"?>
<!-- Created with Inkscape (http://www.inkscape.org/) -->

<svg
   width="87.698906mm"
   height="77.114456mm"
   viewBox="0 0 87.698906 77.114456"
   version="1.1"
   id="svg1684"
   inkscape:version="1.1 (c68e22c387, 2021-05-23)"
   sodipodi:docname="Alfra.svg"
   xmlns:inkscape="http://www.inkscape.org/namespaces/inkscape"
   xmlns:sodipodi="http://sodipodi.sourceforge.net/DTD/sodipodi-0.dtd"
   xmlns="http://www.w3.org/2000/svg"
   xmlns:svg="http://www.w3.org/2000/svg">
  <sodipodi:namedview
     id="namedview1686"
     pagecolor="#ffffff"
     bordercolor="#666666"
     borderopacity="1.0"
     inkscape:pageshadow="2"
     inkscape:pageopacity="0.0"
     inkscape:pagecheckerboard="0"
     inkscape:document-units="mm"
     showgrid="false"
     inkscape:zoom="0.85922204"
     inkscape:cx="243.2433"
     inkscape:cy="236.84216"
     inkscape:window-width="1920"
     inkscape:window-height="1015"
     inkscape:window-x="0"
     inkscape:window-y="0"
     inkscape:window-maximized="1"
     inkscape:current-layer="g1625" />
  <defs
     id="defs1681" />
  <g
     inkscape:label="Camada 1"
     inkscape:groupmode="layer"
     id="layer1"
     transform="translate(-65.457009,-116.47502)">
    <g
       id="g1625"
       transform="matrix(1.0273421,0,0,1.0273421,-253.39547,547.1044)"
       style="stroke:#000000"
       inkscape:export-filename="/home/ismael/Ãrea de Trabalho/Arquivos/Conteudo_Insta/Alfra_Wallpaper.png"
       inkscape:export-xdpi="96"
       inkscape:export-ydpi="96">
      <path
         id="path1596"
         style="color:#000000;fill:#000000;stroke:none;stroke-width:3.88287;stroke-linecap:round;stroke-linejoin:round;-inkscape-stroke:none;paint-order:fill markers stroke"
         d="M 197.80664 0 A 4.8535849 4.8535849 0 0 0 197.77344 0.009765625 A 4.8540701 4.8540701 0 0 0 197.64258 0.001953125 C 187.97878 0.32811402 178.60428 1.7326015 169.64258 4.0976562 A 4.8535847 4.8535847 0 0 0 166.69336 6.3417969 A 4.8535847 4.8535847 0 0 0 166.19336 10.027344 A 4.8535847 4.8535847 0 0 0 172.12305 13.478516 C 180.33675 11.310875 188.92929 10.018285 197.8125 9.7070312 L 211.44531 9.7070312 C 272.08773 11.76344 319.69746 59.371286 321.75391 120.01367 L 321.75391 171.44141 C 319.69747 232.08375 272.08774 279.6936 211.44531 281.75 L 197.93555 281.75 C 141.99268 279.84752 97.16292 239.14235 88.921875 185.27148 A 4.8535849 4.8535849 0 0 0 83.390625 181.20703 A 4.8535849 4.8535849 0 0 0 79.326172 186.73828 C 88.256597 245.11555 137.14468 289.41353 197.64453 291.45312 A 4.8535849 4.8535849 0 0 0 197.72266 291.43555 A 4.8535849 4.8535849 0 0 0 197.80664 291.45703 L 211.58594 291.45703 A 4.8540702 4.8540702 0 0 0 211.75 291.45312 C 277.33373 289.24216 329.24603 237.32976 331.45703 171.74609 A 4.8540702 4.8540702 0 0 0 331.46094 171.58203 L 331.46094 119.875 A 4.8540702 4.8540702 0 0 0 331.45703 119.71094 C 329.24603 54.127234 277.33373 2.2129233 211.75 0.001953125 A 4.8540702 4.8540702 0 0 0 211.58594 0 L 197.80664 0 z M 154.80664 9.7089844 A 4.8535847 4.8535847 0 0 0 152.32227 10.072266 C 109.51567 28.494027 79.601829 70.228292 77.933594 119.71094 A 4.8540701 4.8540701 0 0 0 77.933594 119.87695 L 77.933594 169.88477 A 4.8535847 4.8535847 0 0 0 82.787109 174.73828 A 4.8535847 4.8535847 0 0 0 87.640625 169.88477 L 87.640625 120.03711 C 89.183677 74.268155 116.72758 35.954138 156.16016 18.984375 A 4.8535847 4.8535847 0 0 0 158.69922 12.605469 A 4.8535847 4.8535847 0 0 0 154.80664 9.7089844 z M 200.21289 34.826172 C 193.7949 34.826172 187.47419 35.656253 181.35938 37.207031 A 4.5908893 4.5908893 0 0 0 178.03906 42.789062 A 4.5908893 4.5908893 0 0 0 183.62109 46.111328 C 189.03362 44.738657 194.58887 44.009766 200.21289 44.009766 L 210.50391 44.009766 C 249.90022 44.009766 286.41797 80.527514 286.41797 119.92383 L 286.41797 171.53906 C 286.41797 210.9353 249.90022 247.44336 210.50391 247.44336 L 200.21289 247.44336 C 165.3819 247.44336 132.68514 218.9131 125.70312 185.06055 A 4.5908893 4.5908893 0 0 0 120.27344 181.49609 A 4.5908893 4.5908893 0 0 0 116.70898 186.91797 C 124.61435 225.2477 160.46432 256.62695 200.21289 256.62695 L 210.50391 256.62695 C 255.46231 256.62695 295.59375 216.49739 295.59375 171.53906 L 295.59375 119.92383 C 295.59375 74.965461 255.46231 34.826172 210.50391 34.826172 L 200.21289 34.826172 z M 16.564453 69.810547 A 4.8535847 4.8535847 0 0 0 11.492188 74.427734 A 4.8535847 4.8535847 0 0 0 16.111328 79.501953 C 24.2763 79.880144 34.397695 85.551181 41.857422 93.570312 C 47.100081 99.206062 50.899999 105.86584 52.423828 111.99805 L 36.503906 111.99805 C 16.907306 111.99805 0.00390625 124.73221 0.00390625 141.90039 L 0.00390625 144.83594 C 0.00390625 162.00412 16.907306 174.73828 36.503906 174.73828 L 57.896484 174.73828 A 4.8535847 4.8535847 0 0 0 58.794922 174.64844 A 4.8535847 4.8535847 0 0 0 59.080078 174.57227 A 4.8535847 4.8535847 0 0 0 59.658203 174.39844 A 4.8535847 4.8535847 0 0 0 59.980469 174.24805 A 4.8535847 4.8535847 0 0 0 60.46875 173.98633 A 4.8535847 4.8535847 0 0 0 60.757812 173.78516 A 4.8535847 4.8535847 0 0 0 61.193359 173.42773 A 4.8535847 4.8535847 0 0 0 61.443359 173.17773 A 4.8535847 4.8535847 0 0 0 61.791016 172.75391 A 4.8535847 4.8535847 0 0 0 61.998047 172.45703 A 4.8535847 4.8535847 0 0 0 62.267578 171.95508 A 4.8535847 4.8535847 0 0 0 62.40625 171.65625 A 4.8535847 4.8535847 0 0 0 62.601562 171.01172 A 4.8535847 4.8535847 0 0 0 62.660156 170.79492 A 4.8535847 4.8535847 0 0 0 62.75 169.88477 L 62.75 120.0918 C 63.846192 108.26751 57.696998 96.337679 48.970703 86.957031 C 40.176136 77.503034 28.513505 70.364929 16.566406 69.810547 L 16.564453 69.810547 z M 215.37891 69.810547 A 4.8535847 4.8535847 0 0 0 210.30664 74.427734 A 4.8535847 4.8535847 0 0 0 214.92578 79.501953 C 223.09071 79.882086 233.21331 85.55153 240.67188 93.570312 C 245.91369 99.205816 249.71054 105.8658 251.23242 111.99805 L 235.31836 111.99805 C 215.72176 111.99805 198.81055 124.73225 198.81055 141.90039 L 198.81055 144.83594 C 198.81055 162.00412 215.72176 174.73828 235.31836 174.73828 L 256.71094 174.73828 L 256.71289 174.73828 A 4.8535847 4.8535847 0 0 0 257.60938 174.64844 A 4.8535847 4.8535847 0 0 0 257.88867 174.57422 A 4.8535847 4.8535847 0 0 0 258.47656 174.39648 A 4.8535847 4.8535847 0 0 0 258.78906 174.25195 A 4.8535847 4.8535847 0 0 0 259.2832 173.98633 A 4.8535847 4.8535847 0 0 0 259.57617 173.7832 A 4.8535847 4.8535847 0 0 0 260 173.43359 A 4.8535847 4.8535847 0 0 0 260.26758 173.16602 A 4.8535847 4.8535847 0 0 0 260.59766 172.76367 A 4.8535847 4.8535847 0 0 0 260.81641 172.45508 A 4.8535847 4.8535847 0 0 0 261.08594 171.94727 A 4.8535847 4.8535847 0 0 0 261.2207 171.65625 A 4.8535847 4.8535847 0 0 0 261.4043 171.05469 A 4.8535847 4.8535847 0 0 0 261.47656 170.7832 A 4.8535847 4.8535847 0 0 0 261.56641 169.88477 A 4.8535847 4.8535847 0 0 0 261.56445 169.82422 L 261.56445 120.0918 C 262.6604 108.26863 256.50225 96.337294 247.77734 86.957031 C 238.98417 77.503461 227.32675 70.36753 215.38086 69.810547 L 215.37891 69.810547 z M 105.83398 90.460938 A 4.8535847 4.8535847 0 0 0 100.98047 95.314453 A 4.8535847 4.8535847 0 0 0 105.83398 100.16797 L 138.61914 100.16797 A 4.8535847 4.8535847 0 0 0 143.47266 95.314453 A 4.8535847 4.8535847 0 0 0 138.61914 90.460938 L 105.83398 90.460938 z M 36.503906 121.70508 L 53.042969 121.70508 L 53.042969 165.03125 L 36.503906 165.03125 C 21.030096 165.03125 9.7109375 155.42056 9.7109375 144.83594 L 9.7109375 141.90039 C 9.7109375 131.31573 21.030096 121.70508 36.503906 121.70508 z M 235.31836 121.70508 L 251.85742 121.70508 L 251.85742 165.03125 L 235.31836 165.03125 C 219.84455 165.03125 208.51758 155.42056 208.51758 144.83594 L 208.51758 141.90039 C 208.51758 131.31581 219.84455 121.70508 235.31836 121.70508 z M 155.1582 181.12695 A 4.8535847 4.8535847 0 0 0 153.30078 181.49609 A 4.8535847 4.8535847 0 0 0 150.66797 187.83594 C 154.55157 197.22619 161.68034 205.85272 170.13672 212.14844 C 178.51571 218.38651 188.3148 222.46322 198.0332 221.56055 L 211.35742 221.56055 C 221.076 222.46322 230.88273 218.38651 239.26172 212.14844 C 247.7181 205.85272 254.83901 197.22619 258.72266 187.83594 A 4.8535847 4.8535847 0 0 0 256.08984 181.49609 A 4.8535847 4.8535847 0 0 0 249.75 184.12695 C 246.69185 191.52125 240.56018 199.07601 233.46094 204.36133 C 226.36166 209.64665 218.41483 212.52348 212.08203 211.875 A 4.8540701 4.8540701 0 0 0 211.58984 211.85352 L 197.80859 211.85352 A 4.8540701 4.8540701 0 0 0 197.31641 211.875 C 190.98368 212.52348 183.02897 209.64665 175.92969 204.36133 C 168.83045 199.07601 162.69873 191.52125 159.64062 184.12695 A 4.8535847 4.8535847 0 0 0 155.1582 181.12695 z "
         transform="matrix(0.25754161,0,0,0.25754161,310.36641,-419.16843)" />
      <path
         style="color:#000000;fill:#000000;stroke:none;stroke-linecap:round;stroke-linejoin:round;-inkscape-stroke:none;paint-order:fill markers stroke"
         d="m 352.07617,-407.61914 c -6.97965,3.78721 -12.06055,11.23991 -12.06055,19.33594 v 12.86718 a 1.182345,1.182345 0 0 0 1.18165,1.18165 1.182345,1.182345 0 0 0 1.18359,-1.18165 v -12.86718 c 0,-7.09442 4.56933,-13.86493 10.82226,-17.25782 a 1.182345,1.182345 0 0 0 0.47657,-1.60156 1.182345,1.182345 0 0 0 -1.60352,-0.47656 z"
         id="path11382" />
      <path
         style="color:#000000;fill:#000000;stroke:none;stroke-linecap:round;stroke-linejoin:round;-inkscape-stroke:none;paint-order:fill markers stroke"
         d="m 359.3457,-401.08398 c -2.89077,0.48215 -5.65089,2.33952 -7.71484,4.70898 -2.06395,2.36946 -3.4829,5.30319 -3.18555,8.20703 l -0.008,-0.12695 v 12.8789 a 1.25,1.25 0 0 0 1.25,1.25 1.25,1.25 0 0 0 1.25,-1.25 v -12.8789 a 1.250125,1.250125 0 0 0 -0.006,-0.12891 c -0.19202,-1.87521 0.83651,-4.30441 2.58398,-6.31054 1.74748,-2.00614 4.16217,-3.53621 6.24024,-3.88282 a 1.25,1.25 0 0 0 1.02734,-1.43945 1.25,1.25 0 0 0 -1.4375,-1.02734 z"
         id="path11384" />
    </g>
  </g>
</svg>
