<?xml version="1.0" encoding="UTF-8" standalone="no"?>
<!-- Created with Inkscape (http://www.inkscape.org/) -->

<svg
   width="69.234077mm"
   height="77.112793mm"
   viewBox="0 0 69.234078 77.112792"
   version="1.1"
   id="svg1684"
   inkscape:version="1.1 (c68e22c387, 2021-05-23)"
   sodipodi:docname="EcoRenda.svg"
   xmlns:inkscape="http://www.inkscape.org/namespaces/inkscape"
   xmlns:sodipodi="http://sodipodi.sourceforge.net/DTD/sodipodi-0.dtd"
   xmlns="http://www.w3.org/2000/svg"
   xmlns:svg="http://www.w3.org/2000/svg">
  <sodipodi:namedview
     id="namedview1686"
     pagecolor="#ffffff"
     bordercolor="#666666"
     borderopacity="1.0"
     inkscape:pageshadow="2"
     inkscape:pageopacity="0.0"
     inkscape:pagecheckerboard="0"
     inkscape:document-units="mm"
     showgrid="false"
     inkscape:zoom="0.60756175"
     inkscape:cx="-364.572"
     inkscape:cy="163.76936"
     inkscape:window-width="1920"
     inkscape:window-height="1015"
     inkscape:window-x="0"
     inkscape:window-y="0"
     inkscape:window-maximized="1"
     inkscape:current-layer="g1625" />
  <defs
     id="defs1681">
    <inkscape:path-effect
       fuse_tolerance="0"
       vertical_pattern="false"
       prop_units="false"
       tang_offset="0"
       normal_offset="0"
       spacing="0"
       scale_y_rel="false"
       prop_scale="0.38992336"
       copytype="single_stretched"
       pattern="m 237.67426,719.81979 c 0,-3.64737 2.96027,-6.60763 6.60774,-6.60763 3.64747,0 6.60773,2.96026 6.60773,6.60763 0,3.64747 -2.96026,6.60773 -6.60773,6.60773 -3.64747,0 -6.60774,-2.96026 -6.60774,-6.60773 z"
       is_visible="true"
       id="path-effect2876"
       effect="skeletal"
       lpeversion="0"
       hide_knot="false" />
    <inkscape:path-effect
       effect="skeletal"
       id="path-effect2878"
       is_visible="true"
       pattern="m 288.37435,719.07087 c 0,-3.64747 2.96026,-6.60773 6.60764,-6.60773 3.64747,0 6.60773,2.96026 6.60773,6.60773 0,3.64737 -2.96026,6.60763 -6.60773,6.60763 -3.64738,0 -6.60764,-2.96026 -6.60764,-6.60763 z"
       copytype="single_stretched"
       prop_scale="0.38992336"
       scale_y_rel="false"
       spacing="0"
       normal_offset="0"
       tang_offset="0"
       prop_units="false"
       vertical_pattern="false"
       fuse_tolerance="0"
       lpeversion="0"
       hide_knot="false" />
    <inkscape:path-effect
       end_linecap_type="zerowidth"
       miter_limit="4"
       linejoin_type="extrp_arc"
       start_linecap_type="zerowidth"
       interpolator_beta="0.2"
       interpolator_type="CubicBezierJohan"
       sort_points="true"
       offset_points="1,1.7642616"
       is_visible="true"
       id="path-effect2880"
       effect="powerstroke"
       lpeversion="0"
       scale_width="1"
       not_jump="false" />
    <inkscape:path-effect
       effect="skeletal"
       id="path-effect2882"
       is_visible="true"
       pattern="m 52.65389,710.03727 c 0,-3.64737 2.96026,-6.60764 6.607731,-6.60764 3.64747,0 6.607643,2.96027 6.607643,6.60764 0,3.64747 -2.960173,6.60773 -6.607643,6.60773 -3.647471,0 -6.607731,-2.96026 -6.607731,-6.60773 z"
       copytype="single_stretched"
       prop_scale="-0.075546737"
       scale_y_rel="false"
       spacing="0"
       normal_offset="0"
       tang_offset="0"
       prop_units="false"
       vertical_pattern="false"
       fuse_tolerance="0"
       lpeversion="0"
       hide_knot="false" />
    <inkscape:path-effect
       effect="skeletal"
       id="path-effect2884"
       is_visible="true"
       pattern="m 52.65389,710.03727 c 0,-3.64737 2.96026,-6.60764 6.607731,-6.60764 3.64747,0 6.607643,2.96027 6.607643,6.60764 0,3.64747 -2.960173,6.60773 -6.607643,6.60773 -3.647471,0 -6.607731,-2.96026 -6.607731,-6.60773 z"
       copytype="single_stretched"
       prop_scale="0.061951932"
       scale_y_rel="false"
       spacing="0"
       normal_offset="0"
       tang_offset="0"
       prop_units="false"
       vertical_pattern="false"
       fuse_tolerance="0"
       lpeversion="0"
       hide_knot="false" />
    <inkscape:path-effect
       effect="skeletal"
       id="path-effect2886"
       is_visible="true"
       pattern="m 52.65389,710.03727 c 0,-3.64737 2.96026,-6.60764 6.607731,-6.60764 3.64747,0 6.607643,2.96027 6.607643,6.60764 0,3.64747 -2.960173,6.60773 -6.607643,6.60773 -3.647471,0 -6.607731,-2.96026 -6.607731,-6.60773 z"
       copytype="single_stretched"
       prop_scale="0.10024023"
       scale_y_rel="false"
       spacing="0"
       normal_offset="0"
       tang_offset="0"
       prop_units="false"
       vertical_pattern="false"
       fuse_tolerance="0"
       lpeversion="0"
       hide_knot="false" />
    <inkscape:path-effect
       fuse_tolerance="0"
       vertical_pattern="false"
       prop_units="false"
       tang_offset="0"
       normal_offset="0"
       spacing="0"
       scale_y_rel="false"
       prop_scale="0.077024826"
       copytype="single_stretched"
       pattern="m 53.15387,709.62475 c 0,-3.64738 2.960172,-6.60764 6.607643,-6.60764 3.64747,0 6.607731,2.96026 6.607731,6.60764 0,3.64747 -2.960261,6.60773 -6.607731,6.60773 -3.647471,0 -6.607643,-2.96026 -6.607643,-6.60773 z"
       is_visible="true"
       id="path-effect2888"
       effect="skeletal"
       lpeversion="0"
       hide_knot="false" />
    <inkscape:path-effect
       fuse_tolerance="0"
       vertical_pattern="false"
       prop_units="false"
       tang_offset="0"
       normal_offset="0"
       spacing="0"
       scale_y_rel="false"
       prop_scale="0.07092338"
       copytype="single_stretched"
       pattern="m 53.15387,709.62475 c 0,-3.64738 2.960172,-6.60764 6.607643,-6.60764 3.64747,0 6.607731,2.96026 6.607731,6.60764 0,3.64747 -2.960261,6.60773 -6.607731,6.60773 -3.647471,0 -6.607643,-2.96026 -6.607643,-6.60773 z"
       is_visible="true"
       id="path-effect2890"
       effect="skeletal"
       lpeversion="0"
       hide_knot="false" />
    <inkscape:path-effect
       fuse_tolerance="0"
       vertical_pattern="false"
       prop_units="false"
       tang_offset="0"
       normal_offset="0"
       spacing="0"
       scale_y_rel="false"
       prop_scale="0.086054771"
       copytype="single_stretched"
       pattern="m 53.15387,709.62475 c 0,-3.64738 2.960172,-6.60764 6.607643,-6.60764 3.64747,0 6.607731,2.96026 6.607731,6.60764 0,3.64747 -2.960261,6.60773 -6.607731,6.60773 -3.647471,0 -6.607643,-2.96026 -6.607643,-6.60773 z"
       is_visible="true"
       id="path-effect2892"
       effect="skeletal"
       lpeversion="0"
       hide_knot="false" />
    <inkscape:path-effect
       fuse_tolerance="0"
       vertical_pattern="false"
       prop_units="false"
       tang_offset="0"
       normal_offset="0"
       spacing="0"
       scale_y_rel="false"
       prop_scale="0.049549476"
       copytype="single_stretched"
       pattern="m -469.68855,723.57356 c 0,-3.64747 2.96026,-6.60773 6.60773,-6.60773 3.64739,0 6.60765,2.96026 6.60765,6.60773 0,3.64737 -2.96026,6.60763 -6.60765,6.60763 -3.64747,0 -6.60773,-2.96026 -6.60773,-6.60763 z"
       is_visible="true"
       id="path-effect2894"
       effect="skeletal"
       lpeversion="0"
       hide_knot="false" />
    <inkscape:path-effect
       effect="skeletal"
       id="path-effect2896"
       is_visible="true"
       pattern="m -467.12856,723.54231 c 0,-3.64747 2.96026,-6.60773 6.60773,-6.60773 3.64738,0 6.60764,2.96026 6.60764,6.60773 0,3.64747 -2.96026,6.60764 -6.60764,6.60764 -3.64747,0 -6.60773,-2.96017 -6.60773,-6.60764 z"
       copytype="single_stretched"
       prop_scale="0.049549476"
       scale_y_rel="false"
       spacing="0"
       normal_offset="0"
       tang_offset="0"
       prop_units="false"
       vertical_pattern="false"
       fuse_tolerance="0"
       lpeversion="0"
       hide_knot="false" />
    <inkscape:path-effect
       effect="skeletal"
       id="path-effect2898"
       is_visible="true"
       pattern="m -281.25272,406.89083 c 0,-3.64747 2.96026,-6.60773 6.60773,-6.60773 3.64747,0 6.60773,2.96026 6.60773,6.60773 0,3.64737 -2.96026,6.60763 -6.60773,6.60763 -3.64747,0 -6.60773,-2.96026 -6.60773,-6.60763 z"
       copytype="single_stretched"
       prop_scale="0.17333481"
       scale_y_rel="false"
       spacing="0"
       normal_offset="0"
       tang_offset="0"
       prop_units="false"
       vertical_pattern="false"
       fuse_tolerance="0"
       lpeversion="0"
       hide_knot="false" />
    <inkscape:path-effect
       effect="skeletal"
       id="path-effect2900"
       is_visible="true"
       pattern="m -281.25272,406.89083 c 0,-3.64747 2.96026,-6.60773 6.60773,-6.60773 3.64747,0 6.60773,2.96026 6.60773,6.60773 0,3.64737 -2.96026,6.60763 -6.60773,6.60763 -3.64747,0 -6.60773,-2.96026 -6.60773,-6.60763 z"
       copytype="single_stretched"
       prop_scale="0.10587236"
       scale_y_rel="false"
       spacing="0"
       normal_offset="0"
       tang_offset="0"
       prop_units="false"
       vertical_pattern="false"
       fuse_tolerance="0"
       lpeversion="0"
       hide_knot="false" />
    <inkscape:path-effect
       fuse_tolerance="0"
       vertical_pattern="false"
       prop_units="false"
       tang_offset="0"
       normal_offset="0"
       spacing="0"
       scale_y_rel="false"
       prop_scale="0.15844227"
       copytype="single_stretched"
       pattern="m -469.68855,723.57356 c 0,-3.64747 2.96026,-6.60773 6.60773,-6.60773 3.64739,0 6.60765,2.96026 6.60765,6.60773 0,3.64737 -2.96026,6.60763 -6.60765,6.60763 -3.64747,0 -6.60773,-2.96026 -6.60773,-6.60763 z"
       is_visible="true"
       id="path-effect2902"
       effect="skeletal"
       lpeversion="0"
       hide_knot="false" />
    <inkscape:path-effect
       fuse_tolerance="0"
       vertical_pattern="false"
       prop_units="false"
       tang_offset="0"
       normal_offset="0"
       spacing="0"
       scale_y_rel="false"
       prop_scale="0.18757501"
       copytype="single_stretched"
       pattern="m -469.68855,723.57356 c 0,-3.64747 2.96026,-6.60773 6.60773,-6.60773 3.64739,0 6.60765,2.96026 6.60765,6.60773 0,3.64737 -2.96026,6.60763 -6.60765,6.60763 -3.64747,0 -6.60773,-2.96026 -6.60773,-6.60763 z"
       is_visible="true"
       id="path-effect2904"
       effect="skeletal"
       lpeversion="0"
       hide_knot="false" />
    <inkscape:path-effect
       fuse_tolerance="0"
       vertical_pattern="false"
       prop_units="false"
       tang_offset="0"
       normal_offset="0"
       spacing="0"
       scale_y_rel="false"
       prop_scale="0.10008749"
       copytype="single_stretched"
       pattern="m -469.68855,723.57356 c 0,-3.64747 2.96026,-6.60773 6.60773,-6.60773 3.64739,0 6.60765,2.96026 6.60765,6.60773 0,3.64737 -2.96026,6.60763 -6.60765,6.60763 -3.64747,0 -6.60773,-2.96026 -6.60773,-6.60763 z"
       is_visible="true"
       id="path-effect2906"
       effect="skeletal"
       lpeversion="0"
       hide_knot="false" />
    <inkscape:path-effect
       fuse_tolerance="0"
       vertical_pattern="false"
       prop_units="false"
       tang_offset="0"
       normal_offset="0"
       spacing="0"
       scale_y_rel="false"
       prop_scale="0.20008119"
       copytype="single_stretched"
       pattern="m -469.68855,723.57356 c 0,-3.64747 2.96026,-6.60773 6.60773,-6.60773 3.64739,0 6.60765,2.96026 6.60765,6.60773 0,3.64737 -2.96026,6.60763 -6.60765,6.60763 -3.64747,0 -6.60773,-2.96026 -6.60773,-6.60763 z"
       is_visible="true"
       id="path-effect2908"
       effect="skeletal"
       lpeversion="0"
       hide_knot="false" />
    <inkscape:path-effect
       fuse_tolerance="0"
       vertical_pattern="false"
       prop_units="false"
       tang_offset="0"
       normal_offset="0"
       spacing="0"
       scale_y_rel="false"
       prop_scale="0.16187978"
       copytype="single_stretched"
       pattern="m -469.68855,723.57356 c 0,-3.64747 2.96026,-6.60773 6.60773,-6.60773 3.64739,0 6.60765,2.96026 6.60765,6.60773 0,3.64737 -2.96026,6.60763 -6.60765,6.60763 -3.64747,0 -6.60773,-2.96026 -6.60773,-6.60763 z"
       is_visible="true"
       id="path-effect2910"
       effect="skeletal"
       lpeversion="0"
       hide_knot="false" />
    <inkscape:path-effect
       fuse_tolerance="0"
       vertical_pattern="false"
       prop_units="false"
       tang_offset="0"
       normal_offset="0"
       spacing="0"
       scale_y_rel="false"
       prop_scale="0.14532298"
       copytype="single_stretched"
       pattern="m -469.68855,723.57356 c 0,-3.64747 2.96026,-6.60773 6.60773,-6.60773 3.64739,0 6.60765,2.96026 6.60765,6.60773 0,3.64737 -2.96026,6.60763 -6.60765,6.60763 -3.64747,0 -6.60773,-2.96026 -6.60773,-6.60763 z"
       is_visible="true"
       id="path-effect2912"
       effect="skeletal"
       lpeversion="0"
       hide_knot="false" />
    <inkscape:path-effect
       fuse_tolerance="0"
       vertical_pattern="false"
       prop_units="false"
       tang_offset="0"
       normal_offset="0"
       spacing="0"
       scale_y_rel="false"
       prop_scale="0.16583563"
       copytype="single_stretched"
       pattern="m -469.68855,723.57356 c 0,-3.64747 2.96026,-6.60773 6.60773,-6.60773 3.64739,0 6.60765,2.96026 6.60765,6.60773 0,3.64737 -2.96026,6.60763 -6.60765,6.60763 -3.64747,0 -6.60773,-2.96026 -6.60773,-6.60763 z"
       is_visible="true"
       id="path-effect2914"
       effect="skeletal"
       lpeversion="0"
       hide_knot="false" />
    <inkscape:path-effect
       fuse_tolerance="0"
       vertical_pattern="false"
       prop_units="false"
       tang_offset="0"
       normal_offset="0"
       spacing="0"
       scale_y_rel="false"
       prop_scale="0.14927072"
       copytype="single_stretched"
       pattern="m -469.68855,723.57356 c 0,-3.64747 2.96026,-6.60773 6.60773,-6.60773 3.64739,0 6.60765,2.96026 6.60765,6.60773 0,3.64737 -2.96026,6.60763 -6.60765,6.60763 -3.64747,0 -6.60773,-2.96026 -6.60773,-6.60763 z"
       is_visible="true"
       id="path-effect2916"
       effect="skeletal"
       lpeversion="0"
       hide_knot="false" />
    <inkscape:path-effect
       fuse_tolerance="0"
       vertical_pattern="false"
       prop_units="false"
       tang_offset="0"
       normal_offset="0"
       spacing="0"
       scale_y_rel="false"
       prop_scale="0.084062566"
       copytype="single_stretched"
       pattern="m -469.68855,723.57356 c 0,-3.64747 2.96026,-6.60773 6.60773,-6.60773 3.64739,0 6.60765,2.96026 6.60765,6.60773 0,3.64737 -2.96026,6.60763 -6.60765,6.60763 -3.64747,0 -6.60773,-2.96026 -6.60773,-6.60763 z"
       is_visible="true"
       id="path-effect2918"
       effect="skeletal"
       lpeversion="0"
       hide_knot="false" />
    <inkscape:path-effect
       fuse_tolerance="0"
       vertical_pattern="false"
       prop_units="false"
       tang_offset="0"
       normal_offset="0"
       spacing="0"
       scale_y_rel="false"
       prop_scale="0.11791836"
       copytype="single_stretched"
       pattern="m -469.68855,723.57356 c 0,-3.64747 2.96026,-6.60773 6.60773,-6.60773 3.64739,0 6.60765,2.96026 6.60765,6.60773 0,3.64737 -2.96026,6.60763 -6.60765,6.60763 -3.64747,0 -6.60773,-2.96026 -6.60773,-6.60763 z"
       is_visible="true"
       id="path-effect2920"
       effect="skeletal"
       lpeversion="0"
       hide_knot="false" />
    <inkscape:path-effect
       fuse_tolerance="0"
       vertical_pattern="false"
       prop_units="false"
       tang_offset="0"
       normal_offset="0"
       spacing="0"
       scale_y_rel="false"
       prop_scale="0.11256556"
       copytype="single_stretched"
       pattern="m -469.68855,723.57356 c 0,-3.64747 2.96026,-6.60773 6.60773,-6.60773 3.64739,0 6.60765,2.96026 6.60765,6.60773 0,3.64737 -2.96026,6.60763 -6.60765,6.60763 -3.64747,0 -6.60773,-2.96026 -6.60773,-6.60763 z"
       is_visible="true"
       id="path-effect2922"
       effect="skeletal"
       lpeversion="0"
       hide_knot="false" />
  </defs>
  <g
     inkscape:label="Camada 1"
     inkscape:groupmode="layer"
     id="layer1"
     transform="translate(-245.58271,-125.29746)">
    <g
       id="g1625"
       transform="matrix(1.0273421,0,0,1.0273421,-253.39547,547.1044)"
       style="stroke:#000000"
       inkscape:export-filename="/home/ismael/Área de Trabalho/Arquivos/Conteudo_Insta/Alfra_Wallpaper.png"
       inkscape:export-xdpi="96"
       inkscape:export-ydpi="96">
      <path
         style="fill:#000000;stroke:#ffffff;stroke-width:0;stroke-miterlimit:4;stroke-dasharray:none"
         d="m 512.24943,-337.00617 c 0.003,-1.81128 0.17893,-3.59551 0.43029,-4.35669 0.2651,-0.8018 0.7911,-1.47474 1.38129,-1.76675 l 0.50636,-0.25045 -0.94784,-0.074 c -3.02767,-0.23638 -5.18652,-1.04586 -7.79147,-2.92141 -1.75242,-1.26177 -4.14259,-3.44891 -8.49922,-7.77726 l -4.31008,-4.28214 -3.44915,0.11826 c -1.89709,0.0652 -3.61096,0.11953 -3.80862,0.12064 -0.32111,0.002 0.39706,-0.75772 6.72874,-7.11863 3.89849,-3.91649 7.14683,-7.11577 7.21855,-7.10945 0.0715,0.006 3.63988,2.86659 7.92927,6.35618 6.29243,5.11912 7.75437,6.36172 7.56826,6.43266 -0.18898,0.0722 -6.02263,0.48185 -6.74717,0.47393 -0.11653,-0.001 -0.21225,0.0589 -0.21225,0.13358 0,0.20335 1.95797,3.1029 3.00214,4.44578 3.65068,4.6952 7.80336,8.61485 10.51255,9.92276 0.46484,0.22431 0.95586,0.40974 1.09114,0.41174 0.61954,0.008 -0.19128,0.21628 -1.15126,0.29374 l -1.03344,0.0835 0.003,2.1434 c 0.002,1.79435 -0.0344,2.25198 -0.22689,2.81019 -0.77416,2.24508 -2.25911,2.92006 -7.31719,3.32587 l -0.87897,0.0704 0.002,-1.48604 z m 2.19831,0.0778 c 0.61438,-0.31235 1.149,-1.10927 1.68215,-2.50739 0.64251,-1.68507 0.84028,-2.08484 1.38364,-2.79666 0.45673,-0.59835 0.36808,-0.72677 -0.27113,-0.39279 -0.72164,0.37698 -1.16272,1.06957 -1.96036,3.07816 -0.35022,0.88183 -0.79587,1.65597 -1.54135,2.67746 -0.20881,0.28607 -0.20794,0.28811 0.0873,0.19675 0.164,-0.0508 0.44294,-0.16572 0.6196,-0.25561 z m 8.08032,-8.16305 c -0.85235,-0.27255 -1.62598,-0.71406 -2.60601,-1.48728 -1.28831,-1.01651 -3.52316,-3.58088 -3.39098,-3.89101 0.0344,-0.0804 3.29103,-3.77451 7.23718,-8.2088 l 7.17481,-8.06238 1.59388,-0.0845 c 2.45482,-0.13011 4.74235,-0.32576 7.59525,-0.6493 5.38982,-0.6113 6.22026,-0.35177 5.21938,1.63099 -0.69921,1.3851 -1.56249,2.42703 -9.35497,11.29098 -6.30124,7.16766 -7.23543,8.09681 -9.07941,9.03056 -1.37507,0.69626 -3.04591,0.86026 -4.38913,0.4308 z m 7.90503,-22.50953 c -1.10316,-0.35797 -4.35109,-1.13755 -5.98779,-1.43719 -0.92612,-0.16946 -3.46305,-0.55599 -5.6376,-0.85875 -9.13826,-1.27225 -12.84933,-2.17786 -18.17845,-4.43614 -1.27847,-0.54178 -4.58433,-2.16978 -5.84031,-2.87612 l -0.78805,-0.4432 1.63674,-0.079 c 0.9002,-0.0434 2.97338,-0.25216 4.60707,-0.46361 1.79708,-0.23263 3.81222,-0.41163 5.10179,-0.45302 l 2.13146,-0.0684 1.62691,0.44058 c 2.69984,0.73119 5.68587,1.36584 12.11409,2.57479 8.68035,1.63254 12.0062,2.40238 15.57915,3.60616 2.85051,0.96037 5.73989,2.25744 7.53901,3.38435 l 0.62837,0.3936 -1.47704,-0.0396 c -1.07639,-0.0291 -2.36506,0.0611 -4.75051,0.33242 -3.30476,0.37565 -6.21079,0.62035 -7.21367,0.6074 -0.30011,-0.003 -0.7911,-0.0867 -1.09117,-0.18411 z m 0.68175,-12.36572 c -4.31625,-3.50994 -7.81463,-6.41483 -7.77422,-6.45525 0.0646,-0.0649 5.67128,-0.48228 6.69847,-0.49883 0.21626,-0.003 0.394,-0.0681 0.394,-0.14353 0,-0.23982 -2.24638,-3.50527 -3.43755,-4.9969 -4.08338,-5.11329 -8.39266,-8.94734 -10.92922,-9.72407 -0.44636,-0.13674 -0.4608,-0.15395 -0.18209,-0.21656 0.16687,-0.0373 0.72277,-0.10232 1.23565,-0.14448 l 0.93255,-0.0764 -0.0709,-1.65918 c -0.11022,-2.57066 0.2177,-3.90996 1.19641,-4.88855 1.02712,-1.02714 2.15443,-1.32886 6.49641,-1.73888 l 0.75772,-0.0715 -0.002,1.4912 c -0.003,1.816 -0.17865,3.59997 -0.4303,4.36185 -0.2651,0.80181 -0.79113,1.47475 -1.38131,1.76676 l -0.50633,0.25044 0.94783,0.0767 c 3.83671,0.31096 6.0961,1.37434 10.06981,4.7393 0.78417,0.6641 3.47537,3.23841 5.98044,5.72072 l 4.5546,4.51326 3.629,-0.11511 c 1.99592,-0.0632 3.7036,-0.11653 3.79476,-0.11826 0.14069,-0.003 -13.81365,14.18039 -14.04505,14.27551 -0.0448,0.0172 -3.61247,-2.8385 -7.92871,-6.34846 z m -9.67771,-23.49868 c 0.7246,-0.37852 1.16387,-1.07061 1.96926,-3.1024 0.2246,-0.56679 0.69868,-1.45746 1.05339,-1.97926 0.54914,-0.80787 0.60393,-0.93608 0.36906,-0.86362 -0.94802,0.29256 -1.64187,1.04499 -2.10604,2.28405 -0.69563,1.85685 -1.03736,2.58408 -1.50181,3.19577 -0.50497,0.66508 -0.43876,0.80762 0.21599,0.46546 z m -27.97838,25.01123 c -1.0765,-0.42962 -0.43874,-1.8701 2.24832,-5.07831 2.14753,-2.564 11.515,-13.18899 12.64674,-14.34447 1.45659,-1.48715 2.33979,-2.1644 3.64272,-2.79313 0.92196,-0.44495 1.13225,-0.49811 2.14433,-0.5424 0.89478,-0.039 1.29175,0.003 1.95933,0.20506 1.00475,0.30521 2.35289,1.16054 3.45687,2.19321 1.03621,0.96937 2.67868,2.98692 2.59402,3.18644 -0.0355,0.0842 -3.29366,3.78121 -7.23981,8.21552 l -7.17481,8.06236 -1.5939,0.0845 c -2.43116,0.12901 -4.72297,0.32413 -7.63112,0.64994 -2.75152,0.30827 -4.54095,0.36533 -5.05269,0.16112 z"
         id="path2184"
         inkscape:export-filename="/home/ismael/Área de Trabalho/Apresentação_TCC_I/EcoRenda_Icon.png"
         inkscape:export-xdpi="96"
         inkscape:export-ydpi="96" />
    </g>
  </g>
</svg>
